<svg width="49" height="42" viewBox="0 0 49 42" fill="none" xmlns="http://www.w3.org/2000/svg">
<path fill-rule="evenodd" clip-rule="evenodd" d="M5.4161 37.741C5.4161 37.741 5.6392 39.3584 3.40824 40.2508C1.17729 41.1432 0.00604156 41.199 0.452232 41.6452C0.898423 42.0913 3.51979 41.5894 4.57949 41.5336C5.6392 41.4778 7.9817 41.5894 8.37212 41.2547C8.76253 40.9759 7.59128 38.6891 8.14902 36.7371C8.65098 34.785 9.48759 33.3906 9.76646 31.6616C10.0453 29.9327 9.65491 28.5941 9.65491 28.5941C9.65491 28.5941 12.3321 28.9287 14.0053 29.4865C15.6785 30.0442 20.475 29.5422 20.475 29.5422C20.475 29.5422 22.4829 32.1636 24.3792 33.056C26.2755 33.9484 29.1758 35.0081 30.347 35.51C31.4625 36.012 32.076 36.0678 33.2472 36.0678C34.4185 36.0678 34.8647 36.012 34.8647 36.012C34.8647 36.012 39.4381 37.0159 41.7249 37.1833C44.0116 37.2948 45.0713 38.1314 45.1828 38.8007C45.2944 39.47 45.0155 40.4181 44.7924 40.5855C44.5693 40.7528 43.3423 41.0316 43.2865 41.3663C43.175 41.7009 44.6809 42.0356 45.7964 41.924C46.9118 41.7567 47.0791 41.2547 47.5253 39.5257C47.9715 37.7968 48.6408 37.5737 48.6408 36.9602C48.6408 36.3466 48.0831 35.7331 46.8561 35.7331C45.629 35.7889 42.0595 34.2272 40.4421 33.5022C38.8804 32.7771 37.263 32.6656 35.9244 32.6656C34.5858 32.6656 34.0838 32.6656 34.0838 32.6656C34.0838 32.6656 31.5183 31.6059 30.4028 30.4346C29.2315 29.2634 27.7256 28.5383 27.391 28.3152C27.1121 28.0921 26.4986 27.3671 26.4986 27.3671C26.4986 27.3671 26.7775 26.5862 26.164 25.6381C25.5505 24.6899 23.6541 22.7936 23.6541 22.7936C23.6541 22.7936 22.7618 22.0128 22.7618 21.455C22.7618 20.8415 23.4868 19.5029 23.8215 19.0568C24.1003 18.6106 25.3274 16.5469 25.9966 16.1565C26.6659 15.7103 27.1679 14.8737 27.5583 14.5949C27.9487 14.316 28.3949 13.8698 28.5065 13.5909C28.618 13.3678 29.6777 12.5312 29.6777 12.5312C29.6777 12.5312 29.5104 14.9853 29.3988 16.1565C29.2873 17.3278 29.0084 18.2201 28.9527 18.3317C28.8969 18.4432 29.3988 18.1086 29.3988 18.1086C29.3988 18.1086 29.5662 18.6106 29.0642 19.3914C28.5622 20.228 27.893 20.4511 27.893 20.4511C27.893 20.4511 29.0642 20.5627 29.4546 20.2838C29.9008 20.0049 29.6219 20.1165 29.6219 20.1165C29.6219 20.1165 29.3988 21.0088 29.0084 21.2319C28.5622 21.5108 28.3949 21.5666 28.3949 21.5666C28.3949 21.5666 30.0124 21.455 30.4585 20.8973C30.9047 20.3396 30.7932 19.2241 31.3509 18.5548C31.9087 17.9413 32.076 18.6663 32.0202 19.2241C31.9644 19.7818 31.9087 20.0049 31.9087 20.0049C31.9087 20.0049 32.578 19.001 33.0799 18.1086C33.5819 17.2162 33.6934 15.041 33.6377 13.089C33.5261 11.1926 33.4703 10.5791 33.4703 10.5791C33.4703 10.5791 34.6974 9.74253 35.0878 8.68283C35.4782 7.56735 35.534 6.89806 35.534 6.89806C35.534 6.89806 39.3824 5.00175 40.2747 4.72288C41.1671 4.44401 41.6133 4.66711 42.1711 4.94598C42.7288 5.16907 43.9 5.05753 44.1789 4.94598C44.4578 4.83443 44.6809 4.33247 44.6809 4.33247C44.6809 4.33247 46.2983 4.22092 46.5214 4.0536C46.7445 3.88628 46.6887 3.66318 46.6887 3.66318C46.6887 3.66318 46.9676 3.60741 46.9676 3.38431C46.9118 3.16122 45.7964 2.7708 45.7964 2.7708C45.7964 2.7708 46.6887 2.38038 46.7445 2.04574C46.8561 1.7111 46.6887 1.59955 45.8521 1.26491C45.0155 0.930264 43.7885 0.930264 42.9519 1.04181C42.1153 1.15336 40.9998 1.87842 40.9998 1.87842C40.9998 1.87842 37.4303 2.49193 35.534 2.88235C33.6377 3.27276 32.9684 3.77473 32.9684 3.77473C32.9684 3.77473 32.1318 3.71896 31.8529 3.71896C31.6298 3.71896 31.0721 3.88628 30.849 3.88628C30.6259 3.88628 29.7893 3.49586 29.6219 3.49586C29.4546 3.49586 29.4546 3.8305 29.3431 3.94205C29.2315 4.0536 27.7256 4.22092 27.5025 4.72288C27.2794 5.28062 27.6699 5.72681 27.6699 6.56342C27.6699 7.40003 26.6102 9.07324 26.1082 9.40789C25.6062 9.74253 21.8694 10.6349 20.9212 11.1926C19.9731 11.7504 19.75 12.8101 19.75 13.3121C19.75 13.814 19.6942 14.1487 19.6942 14.2044C19.6942 14.316 18.2441 16.5469 18.1883 17.2162C18.1325 17.9413 18.1883 19.1683 18.1883 19.8376C18.1883 20.5627 17.9094 21.7339 17.8537 22.4032C17.7979 23.0167 17.7979 23.4071 17.7979 23.4071C17.7979 23.4071 12.2763 23.6302 10.4357 24.0206C8.53944 24.411 7.25664 24.411 6.58735 25.1361C5.91807 25.8054 5.69497 27.3113 5.75075 27.9806C5.86229 28.6499 5.69497 29.5422 5.6392 29.9884C5.58342 30.4346 5.36033 33.4464 5.4161 34.6177C5.4161 35.7889 5.36033 37.6294 5.36033 37.6294L5.4161 37.741Z" fill="#FED15A"/>
<path fill-rule="evenodd" clip-rule="evenodd" d="M5.4161 37.7409C5.4161 37.7409 5.6392 39.3583 3.40824 40.2507C1.17729 41.1431 0.00604159 41.1989 0.452232 41.645C0.898423 42.0912 3.51979 41.5893 4.57949 41.5335C5.6392 41.4777 7.9817 41.5893 8.37211 41.2546C8.76253 40.9758 7.59128 38.689 8.14902 36.7369C8.65098 34.7849 9.48759 33.3905 9.76646 31.6615C10.0453 29.9325 9.65491 28.594 9.65491 28.594C9.65491 28.594 12.3321 28.9286 14.0053 29.4864C15.4554 29.9883 19.248 29.6537 20.2519 29.5421C19.9731 29.2633 19.3596 28.594 19.0249 28.0362C18.5787 27.2554 18.2999 25.9168 18.021 25.136C17.7421 24.3552 17.8537 23.6301 17.8537 23.5186C17.3517 23.5186 12.2763 23.7974 10.4915 24.1321C8.59521 24.5225 7.31241 24.5225 6.64313 25.2475C5.97384 25.9168 5.75074 27.4227 5.80652 28.092C5.91807 28.7613 5.75074 29.6537 5.69497 30.0999C5.6392 30.5461 5.4161 33.5578 5.47188 34.7291C5.47188 35.9003 5.4161 37.7409 5.4161 37.7409Z" fill="#F8B74B"/>
<path fill-rule="evenodd" clip-rule="evenodd" d="M27.5029 5.22496C27.5029 5.55961 27.6703 5.89425 27.726 6.34044C27.7818 6.39621 27.8376 6.45199 27.8933 6.50776C28.228 6.89818 28.7857 7.17705 29.1204 7.28859C29.2877 7.0655 29.455 6.8424 29.5666 6.73086C29.6223 6.67508 29.7339 6.56353 29.8454 6.45199H29.7339C29.7339 6.45199 28.7857 6.45199 28.1722 6.0058C27.8376 5.7827 27.6703 5.44806 27.5587 5.16919L27.5029 5.22496Z" fill="#F8B74B"/>
<path fill-rule="evenodd" clip-rule="evenodd" d="M28.5626 13.7585C28.6184 13.7027 28.6184 13.6469 28.6184 13.6469C28.7299 13.4238 29.7896 12.5872 29.7896 12.5872C29.7896 12.5872 29.6223 15.0413 29.5108 16.2125C29.3992 17.3838 29.1204 18.2761 29.0646 18.3877C29.0088 18.4992 29.5108 18.1646 29.5108 18.1646C29.5108 18.1646 29.6781 18.6666 29.1761 19.4474C28.6742 20.284 28.0049 20.5071 28.0049 20.5071C28.0049 20.5071 29.1761 20.6186 29.5665 20.3398C30.0127 20.0609 29.7339 20.1725 29.7339 20.1725C29.7339 20.1725 29.5108 21.0648 29.1204 21.2879C28.6742 21.5668 28.5068 21.6226 28.5068 21.6226C28.5068 21.6226 30.1243 21.511 30.5705 20.9533C31.0167 20.3955 30.9051 19.2801 31.4629 18.6108C32.0206 17.9973 32.1879 18.7223 32.1321 19.2801C32.0764 19.8378 32.0206 20.0609 32.0206 20.0609C32.0206 20.0609 32.6899 19.057 33.1918 18.1646C33.6938 17.2722 33.8054 15.097 33.7496 13.145C33.638 11.2486 33.5823 10.6351 33.5823 10.6351C33.5823 10.6351 34.8093 9.79852 35.1997 8.73882C35.5901 7.62334 35.6459 6.95406 35.6459 6.95406C35.6459 6.95406 39.4943 5.05775 40.3867 4.77888C41.2791 4.50001 41.7252 4.7231 42.283 5.00197C42.8407 5.22507 44.012 5.11352 44.2908 5.00197C44.5697 4.89043 44.7928 4.38846 44.7928 4.38846C44.7928 4.38846 46.4102 4.27691 46.6333 4.10959C46.8564 3.94227 46.8007 3.71918 46.8007 3.71918C46.8007 3.71918 47.0795 3.6634 47.0795 3.44031C47.0238 3.27299 46.2987 2.99412 46.0198 2.88257C45.9083 2.93834 45.6852 3.04989 45.4621 3.16144C45.1274 3.32876 44.8486 3.60763 44.1235 3.77495C43.3985 3.99804 42.6176 3.77495 42.2272 3.60763C41.8368 3.38453 41.6137 3.44031 40.554 3.71918C39.4943 3.99804 35.4228 5.95013 35.3113 6.0059C35.1997 6.06168 34.3073 6.56364 33.6938 6.95406C33.0803 7.34447 31.1282 9.57543 30.5705 10.6909C30.0127 11.8064 29.1204 12.4757 28.8973 12.9219C28.8415 13.0892 28.7299 13.368 28.6742 13.7027L28.5626 13.7585Z" fill="#F8B74B"/>
<path fill-rule="evenodd" clip-rule="evenodd" d="M28.5626 13.7584C28.6184 13.7026 28.6184 13.6468 28.6184 13.6468C28.7299 13.4238 29.7896 12.5871 29.7896 12.5871C29.7896 12.5871 29.6223 15.0412 29.5108 16.2124C29.3992 17.3837 29.1204 18.2761 29.0646 18.3876C29.0088 18.4992 29.5108 18.1645 29.5108 18.1645C29.5108 18.1645 29.6781 18.6665 29.1761 19.4473C28.6742 20.2839 28.0049 20.507 28.0049 20.507C28.0049 20.507 29.1761 20.6186 29.5665 20.3397C30.0127 20.0608 29.7339 20.1724 29.7339 20.1724C29.7339 20.1724 29.5108 21.0648 29.1204 21.2879C28.6742 21.5667 28.5068 21.6225 28.5068 21.6225C28.5068 21.6225 30.1243 21.511 30.5705 20.9532C31.0167 20.3955 30.9051 19.28 31.4629 18.6107C32.0206 17.9972 32.1879 18.7223 32.1321 19.28C32.0764 19.8377 32.0206 20.0608 32.0206 20.0608C32.0206 20.0608 32.6899 19.0569 33.1918 18.1645C33.6938 17.2721 33.8054 15.097 33.7496 13.1449C33.638 11.2486 33.5823 10.6351 33.5823 10.6351C33.5823 10.6351 34.8093 9.79845 35.1997 8.73875C35.5901 7.62328 35.6459 6.95399 35.6459 6.95399H35.7017C35.6459 6.56357 35.5343 6.11738 35.4786 5.89429C35.367 5.95006 35.3113 5.95006 35.3113 5.95006C35.1997 6.00583 34.3073 6.5078 33.6938 6.89822C33.0803 7.28863 31.1282 9.51959 30.5705 10.6351C30.0127 11.7505 29.1204 12.4198 28.8973 12.866C28.8415 13.0333 28.7299 13.3122 28.6742 13.6468L28.5626 13.7584Z" fill="#3F596C"/>
<path fill-rule="evenodd" clip-rule="evenodd" d="M24.3794 18.4436C24.8814 17.6627 25.6622 16.4915 26.1642 16.2126L26.22 16.1568C25.5507 16.1568 24.6583 15.9338 23.7659 15.0414C22.2043 13.3124 22.9293 11.8065 23.8775 11.0814C24.3794 10.691 24.8256 10.3006 25.1045 10.0217C23.7659 10.4121 21.7581 10.9699 21.0888 11.3603C20.1406 11.918 19.9175 12.9777 19.9175 13.4797C19.9175 13.9817 19.8618 14.3163 19.8618 14.3721C19.8618 14.3721 19.7502 14.5394 19.6387 14.7625C20.1406 15.2087 21.2003 16.2684 22.2043 17.0492C23.0409 17.6627 23.8775 18.1647 24.4352 18.4993L24.3794 18.4436Z" fill="#87A0D1"/>
<path fill-rule="evenodd" clip-rule="evenodd" d="M20.3637 29.6541H20.4753C20.4753 29.6541 20.9773 30.3233 21.7581 31.1042C22.3158 30.9369 23.2082 30.6022 24.2679 29.9329C25.9969 28.8175 26.6662 27.4231 26.6662 27.4231L26.722 27.3673C26.7777 27.0885 26.8335 26.475 26.3315 25.7499C25.8296 24.9691 24.4352 23.5189 23.9333 23.0728C23.7659 23.4632 23.5428 24.0209 23.1524 24.6344C22.3158 25.8614 19.5829 27.5347 19.0809 27.2C18.579 26.8654 17.9655 24.0209 17.9655 24.0209C17.9655 24.0209 17.7424 25.5268 18.579 27.4231C19.2483 28.929 20.0849 29.5425 20.3637 29.7098V29.6541Z" fill="#3F596C"/>
</svg>
